REM MD5 1f43b5bd35a02c7d18fc6627684144f9
FILE "World Tennis Stars (Europe).bin" BINARY
  TRACK 01 MODE2/2352
    INDEX 01 00:00:00
  TRACK 02 AUDIO
    INDEX 00 05:04:45
    INDEX 01 05:06:45
  TRACK 03 AUDIO
    INDEX 00 06:09:40
    INDEX 01 06:11:40
  TRACK 04 AUDIO
    INDEX 00 07:10:11
    INDEX 01 07:12:11
  TRACK 05 AUDIO
    INDEX 00 08:15:06
    INDEX 01 08:17:06
  TRACK 06 AUDIO
    INDEX 00 09:15:52
    INDEX 01 09:17:52
REM LEADOUT 13:17:54
